# xmcd CD database file
#
# Track frame offsets:
#	150
#	20600
#	32631
#	54644
#	61591
#	75550
#	92195
#	108848
#	134023
#
# Disc length: 2074 seconds
#
# Revision: 1
# Processed by: cddbd v1.5.2PL0 Copyright (c) Steve Scherf et al.
# Submitted via: CDex 1.70beta2
#
DISCID=6e081809
DTITLE=Will Ackermann - It Takes a Year
DYEAR=1900
DGENRE=Meditative
TTITLE0=The Bricklayer's Beautiful Daughter
TTITLE1=Balancing
TTITLE2=The Impending Death of the Virgin Spirit
TTITLE3=It Takes a Year
TTITLE4=The Townshend Shuffle
TTITLE5=Tribute to the Philosophy of James Estell Bradley
TTITLE6=The Search for the Turtle's Navel
TTITLE7=Rain Sequence
TTITLE8=The Rediscovery of Big Bug Creek, Arizona
EXTD=
EXTT0=
EXTT1=
EXTT2=
EXTT3=
EXTT4=
EXTT5=
EXTT6=
EXTT7=
EXTT8=
PLAYORDER=
